Coordinates
version=1
nRows=23
nColumns=27
inDegrees=yes

Units are S.I. units (second, meters, Newtons, ...)
If the header above contains a line with 'inDegrees', this indicates whether rotational values are in degrees (yes) or radians (no).

endheader
time	pelvis_rotation	pelvis_tilt	pelvis_list	pelvis_tx	pelvis_ty	pelvis_tz	hip_flexion_r	hip_adduction_r	hip_rotation_r	knee_angle_r	knee_rotation_r	knee_adduction_r	knee_angle_r_beta	ankle_angle_r	subtalar_angle_r	mtp_angle_r	hip_flexion_l	hip_adduction_l	hip_rotation_l	knee_angle_l	knee_rotation_l	knee_adduction_l	knee_angle_l_beta	ankle_angle_l	subtalar_angle_l	mtp_angle_l
      4.38000000	      8.57061154	    -32.73580866	      2.14378674	     -0.00901113	      0.42666327	     -1.12405388	    135.44640462	    -48.77351654	     32.69922695	    109.48282286	      0.00000000	      9.92969896	      1.91083573	     12.03856459	      0.00000000	      0.00000000	    132.19423755	    -37.66706497	     21.18783513	    104.43829304	      0.00000000	     -9.94773691	      1.82279208	      7.15602435	      0.00000000	      0.00000000
      4.38500000	      8.51582472	    -32.71081836	      2.25216622	     -0.00887690	      0.42598008	     -1.12413265	    135.56933625	    -48.53827058	     32.91927024	    109.57341696	      0.00000000	      9.92953592	      1.91241690	     12.10918796	      0.00000000	      0.00000000	    132.23324296	    -37.83092629	     21.15223140	    104.52864505	      0.00000000	     -9.94788301	      1.82436902	      7.13234872	      0.00000000	      0.00000000
      4.39000000	      8.61865543	    -32.66090041	      2.19511476	     -0.00854246	      0.42539963	     -1.12424348	    135.55393326	    -48.64771102	     33.01580652	    109.64633991	      0.00000000	      9.92951238	      1.91368964	     12.12276461	      0.00000000	      0.00000000	    132.31754710	    -37.69230410	     21.25501165	    104.62777831	      0.00000000	     -9.94794412	      1.82609922	      7.16887553	      0.00000000	      0.00000000
      4.39500000	      8.67465270	    -32.62617458	      2.19515296	     -0.00827561	      0.42486878	     -1.12433692	    135.57307177	    -48.64895255	     33.14096383	    109.71670149	      0.00000000	      9.92940942	      1.91491769	     12.15264759	      0.00000000	      0.00000000	    132.36967641	    -37.64421373	     21.30186244	    104.71237957	      0.00000000	     -9.94802710	      1.82757579	      7.18080139	      0.00000000	      0.00000000
      4.40000000	      8.75599545	    -32.60461865	      2.20212736	     -0.00801929	      0.42438458	     -1.12449304	    135.61592329	    -48.67785557	     33.27941872	    109.76983804	      0.00000000	      9.92929525	      1.91584509	     12.21160065	      0.00000000	      0.00000000	    132.42837577	    -37.56845290	     21.33188028	    104.79760023	      0.00000000	     -9.94808502	      1.82906317	      7.17486671	      0.00000000	      0.00000000
      4.40500000	      8.79827836	    -32.57081616	      2.20197000	     -0.00776899	      0.42393444	     -1.12461051	    135.63066884	    -48.66715906	     33.39533525	    109.83156903	      0.00000000	      9.92913255	      1.91692250	     12.20956058	      0.00000000	      0.00000000	    132.46376993	    -37.52542098	     21.37299493	    104.87623084	      0.00000000	     -9.94813408	      1.83043554	      7.22071004	      0.00000000	      0.00000000
      4.41000000	      8.85794960	    -32.55134728	      2.21120321	     -0.00750505	      0.42354082	     -1.12473369	    135.64689864	    -48.67145170	     33.50987342	    109.88247581	      0.00000000	      9.92893712	      1.91781099	     12.26408311	      0.00000000	      0.00000000	    132.50030266	    -37.47405421	     21.39695909	    104.94957496	      0.00000000	     -9.94817503	      1.83171563	      7.24180755	      0.00000000	      0.00000000
      4.41500000	      8.87257566	    -32.60401482	      2.21982027	     -0.00734371	      0.42318395	     -1.12484626	    135.71408370	    -48.60958769	     33.59416203	    109.92720317	      0.00000000	      9.92862809	      1.91859163	     12.29914495	      0.00000000	      0.00000000	    132.61338157	    -37.45780680	     21.43830265	    105.01559238	      0.00000000	     -9.94819896	      1.83286785	      7.25099447	      0.00000000	      0.00000000
      4.42000000	      9.00631942	    -32.55415947	      2.23865455	     -0.00707778	      0.42293574	     -1.12499967	    135.72330153	    -48.70564783	     33.73553190	    109.96252473	      0.00000000	      9.92855551	      1.91920811	     12.30788481	      0.00000000	      0.00000000	    132.56321709	    -37.31408572	     21.41849513	    105.06592562	      0.00000000	     -9.94820781	      1.83374633	      7.28681532	      0.00000000	      0.00000000
      4.42500000	      9.01951186	    -32.52739741	      2.23854912	     -0.00683125	      0.42272231	     -1.12512132	    135.67957105	    -48.67349822	     33.78913728	    109.99463125	      0.00000000	      9.92828663	      1.91976847	     12.34114726	      0.00000000	      0.00000000	    132.56779867	    -37.30347192	     21.43728056	    105.12761247	      0.00000000	     -9.94819947	      1.83482297	      7.31204497	      0.00000000	      0.00000000
      4.43000000	      9.07062380	    -32.55251363	      2.24262046	     -0.00664321	      0.42253132	     -1.12525389	    135.71204681	    -48.67537829	     33.86606810	    110.02670039	      0.00000000	      9.92801745	      1.92032819	     12.36688823	      0.00000000	      0.00000000	    132.61223359	    -37.23666525	     21.45297014	    105.17517230	      0.00000000	     -9.94817051	      1.83565305	      7.35038262	      0.00000000	      0.00000000
      4.43500000	      9.16517207	    -32.55319103	      2.20994473	     -0.00647826	      0.42241350	     -1.12538201	    135.66241525	    -48.75498093	     33.88705174	    110.03802764	      0.00000000	      9.92772165	      1.92052588	     12.43084379	      0.00000000	      0.00000000	    132.64009065	    -37.08115287	     21.49333452	    105.21686708	      0.00000000	     -9.94810280	      1.83638076	      7.34862530	      0.00000000	      0.00000000
      4.44000000	      9.17090672	    -32.55971552	      2.26041641	     -0.00627865	      0.42234195	     -1.12551847	    135.70283901	    -48.68637526	     33.98992216	    110.06372919	      0.00000000	      9.92738670	      1.92097446	     12.40265267	      0.00000000	      0.00000000	    132.61406032	    -37.11745468	     21.44427554	    105.25034989	      0.00000000	     -9.94806764	      1.83696514	      7.40600789	      0.00000000	      0.00000000
      4.44500000	      9.24468426	    -32.63694414	      2.29580046	     -0.00622141	      0.42232121	     -1.12566557	    135.78986886	    -48.68360101	     34.07382738	    110.06810429	      0.00000000	      9.92709390	      1.92105082	     12.41616347	      0.00000000	      0.00000000	    132.65280978	    -37.02270100	     21.40912394	    105.27457882	      0.00000000	     -9.94797955	      1.83738802	      7.43363883	      0.00000000	      0.00000000
      4.45000000	      9.27766936	    -32.67285703	      2.30691192	     -0.00613827	      0.42234620	     -1.12578699	    135.79934888	    -48.66309750	     34.10971542	    110.07172183	      0.00000000	      9.92670575	      1.92111396	     12.41566503	      0.00000000	      0.00000000	    132.66506528	    -36.97105269	     21.39566087	    105.29176781	      0.00000000	     -9.94789550	      1.83768802	      7.44909214	      0.00000000	      0.00000000
      4.45500000	      9.34114538	    -32.69942647	      2.33044861	     -0.00605950	      0.42241410	     -1.12592395	    135.81775625	    -48.67356025	     34.16796991	    110.06952916	      0.00000000	      9.92632150	      1.92107569	     12.42378425	      0.00000000	      0.00000000	    132.65020112	    -36.89226798	     21.35666609	    105.30859141	      0.00000000	     -9.94780304	      1.83798165	      7.47959873	      0.00000000	      0.00000000
      4.46000000	      9.38910649	    -32.76650737	      2.36233858	     -0.00604402	      0.42254520	     -1.12605578	    135.86595426	    -48.65506227	     34.20932709	    110.06221278	      0.00000000	      9.92592292	      1.92094799	     12.43290819	      0.00000000	      0.00000000	    132.66228116	    -36.83181478	     21.30948219	    105.31301795	      0.00000000	     -9.94769868	      1.83805891	      7.49140934	      0.00000000	      0.00000000
      4.46500000	      9.51485161	    -32.81512277	      2.39993063	     -0.00600383	      0.42272269	     -1.12619241	    135.94974472	    -48.73895558	     34.28697532	    110.05407252	      0.00000000	      9.92554467	      1.92080592	     12.36723688	      0.00000000	      0.00000000	    132.64063997	    -36.69463981	     21.22095458	    105.30838120	      0.00000000	     -9.94757296	      1.83797798	      7.50317580	      0.00000000	      0.00000000
      4.47000000	      9.48848072	    -32.85616668	      2.41603872	     -0.00606364	      0.42291107	     -1.12629137	    135.89848745	    -48.63311286	     34.27167946	    110.03119144	      0.00000000	      9.92500646	      1.92040657	     12.40926988	      0.00000000	      0.00000000	    132.63253016	    -36.70081293	     21.20220465	    105.30361718	      0.00000000	     -9.94742583	      1.83789483	      7.51098474	      0.00000000	      0.00000000
      4.47500000	      9.54579307	    -32.90996702	      2.44648366	     -0.00613660	      0.42316152	     -1.12639567	    135.91667276	    -48.62290363	     34.29376965	    110.00919318	      0.00000000	      9.92453133	      1.92002263	     12.40168896	      0.00000000	      0.00000000	    132.61176470	    -36.62411044	     21.13861469	    105.28611158	      0.00000000	     -9.94727517	      1.83758930	      7.51187030	      0.00000000	      0.00000000
      4.48000000	      9.60611660	    -32.97763158	      2.47580342	     -0.00625712	      0.42345703	     -1.12651445	    135.95184802	    -48.62546752	     34.30639594	    109.97796296	      0.00000000	      9.92401926	      1.91947756	     12.39185893	      0.00000000	      0.00000000	    132.60321411	    -36.53793560	     21.07084014	    105.26502907	      0.00000000	     -9.94709894	      1.83722134	      7.51448217	      0.00000000	      0.00000000
      4.48500000	      9.68203672	    -33.03727687	      2.52002887	     -0.00635815	      0.42380848	     -1.12661688	    135.98356679	    -48.63109338	     34.33877081	    109.94910639	      0.00000000	      9.92347647	      1.91897392	     12.38173035	      0.00000000	      0.00000000	    132.56238920	    -36.44776858	     20.97973535	    105.23419060	      0.00000000	     -9.94690867	      1.83668311	      7.51436660	      0.00000000	      0.00000000
      4.49000000	      9.73508262	    -33.10724994	      2.55094612	     -0.00656956	      0.42418495	     -1.12670599	    136.00634329	    -48.61631460	     34.33500579	    109.90770154	      0.00000000	      9.92290035	      1.91825127	     12.36900833	      0.00000000	      0.00000000	    132.54393802	    -36.36798936	     20.89911148	    105.19344120	      0.00000000	     -9.94670151	      1.83597190	      7.51185090	      0.00000000	      0.00000000
